<?xml version="1.0" encoding="UTF-8" standalone="no"?><!DOCTYPE svg PUBLIC "-//W3C//DTD SVG 1.1//EN" "http://www.w3.org/Graphics/SVG/1.1/DTD/svg11.dtd"><svg width="100%" height="100%" viewBox="0 0 284 284" version="1.1" xmlns="http://www.w3.org/2000/svg" xmlns:xlink="http://www.w3.org/1999/xlink" xml:space="preserve" xmlns:serif="http://www.serif.com/" style="fill-rule:evenodd;clip-rule:evenodd;stroke-linejoin:round;stroke-miterlimit:2;"><rect id="Page-3" serif:id="Page 3" x="0" y="0" width="283.333" height="283.333" style="fill:none;"/><g id="icon"><path d="M283.333,141.667c0,78.241 -63.425,141.666 -141.666,141.666c-78.242,0 -141.667,-63.425 -141.667,-141.666c0,-78.242 63.425,-141.667 141.667,-141.667c78.241,0 141.666,63.425 141.666,141.667" style="fill:#00b0b1;fill-rule:nonzero;"/><path d="M139.791,104.167l0,32.041l-11.971,-25.054l-5.642,2.692l17.917,37.5l5.483,0.296l15.417,-25l-5.321,-3.284l-9.633,15.621l0,-34.812l-6.25,0Z" style="fill:#fff;fill-rule:nonzero;"/><path d="M58.333,137.5c-13.808,0 -25,11.192 -25,25l50,0c0,-13.808 -11.191,-25 -25,-25" style="fill:#fff;fill-rule:nonzero;"/><path d="M104.167,133.333c-9.204,0 -16.667,7.463 -16.667,16.667l33.333,0c0,-9.204 -7.462,-16.667 -16.666,-16.667" style="fill:#fff;fill-rule:nonzero;"/><path d="M191.667,105.127c-8.988,0 -13.313,-0.179 -15.334,-0.383c-3.412,-8.3 -9.912,-16.959 -17.625,-24.959c9.013,-6.233 19.421,-11.579 21.609,-11.737c7.158,0 48.316,28.783 48.316,48.317l6.25,0c0,-22.65 -43.47,-54.567 -54.566,-54.567c-4.75,0 -18.479,8.167 -26.125,13.512c-16.475,-15.666 -36.446,-27.804 -44.129,-27.804c-14,0 -68.855,40.279 -68.855,68.859l6.25,0c0,-25.309 53.33,-62.609 62.605,-62.609c9.275,0 62.604,37.3 62.604,62.609l6.25,0c0,-2.667 -0.479,-5.438 -1.354,-8.263c4.466,-0.062 14.408,1.329 26.604,12.583c16.666,15.384 -0.229,32.313 -45.834,41.817c-83.841,17.467 -106.162,34.933 -108.737,54.858c21.367,27.438 54.679,45.142 92.071,45.142c3.066,0 6.096,-0.158 9.104,-0.392c-20.85,-13.141 -3.938,-43.779 15.896,-57.941c29.166,-20.834 33.191,-16.525 58.333,-41.667c33.333,-33.333 -16.667,-57.375 -33.333,-57.375" style="fill:#fff;fill-rule:nonzero;"/></g></svg>