<?xml version="1.0" encoding="UTF-8" standalone="no"?><!DOCTYPE svg PUBLIC "-//W3C//DTD SVG 1.1//EN" "http://www.w3.org/Graphics/SVG/1.1/DTD/svg11.dtd"><svg width="100%" height="100%" viewBox="0 0 284 284" version="1.1" xmlns="http://www.w3.org/2000/svg" xmlns:xlink="http://www.w3.org/1999/xlink" xml:space="preserve" xmlns:serif="http://www.serif.com/" style="fill-rule:evenodd;clip-rule:evenodd;stroke-linejoin:round;stroke-miterlimit:2;"><rect id="Page-2" serif:id="Page 2" x="0" y="0" width="283.333" height="283.333" style="fill:none;"/><g id="background"><path d="M283.333,141.667c0,78.241 -63.425,141.666 -141.666,141.666c-78.242,0 -141.667,-63.425 -141.667,-141.666c0,-78.242 63.425,-141.667 141.667,-141.667c78.241,0 141.666,63.425 141.666,141.667" style="fill:#006ccc;fill-rule:nonzero;"/></g><g id="Layer-3" serif:id="Layer 3"><path d="M214.82,145.617c-3.32,0 -6.012,2.691 -6.012,6.012c0,3.321 2.692,6.013 6.012,6.013c3.321,0 6.013,-2.692 6.013,-6.013c0,-3.321 -2.692,-6.012 -6.013,-6.012" style="fill:#fff;fill-rule:nonzero;"/><path d="M117.5,205.833c-12.887,0 -23.333,10.446 -23.333,23.334l46.666,0c0,-12.888 -10.445,-23.334 -23.333,-23.334" style="fill:#fff;fill-rule:nonzero;"/><path d="M122.357,67.657c21.733,3.95 34.096,8.909 44.029,12.888c11.15,4.467 19.954,7.996 35.696,7.996c28.263,0 37.479,-11.117 37.858,-11.588l-4.854,-3.937c-0.079,0.096 -8.108,9.275 -33.004,9.275c-14.533,0 -22.433,-3.167 -33.371,-7.546c-10.196,-4.088 -22.883,-9.171 -45.233,-13.238c-46.667,-8.495 -82.217,18.205 -83.708,19.346l3.791,4.963c0.35,-0.263 34.946,-26.134 78.796,-18.159" style="fill:#fff;fill-rule:nonzero;"/><path d="M236.143,162.459c-7.625,5.7 -21.979,14.738 -38.704,17.054l0,-10.504l-15.159,0l-4.875,9.746c-18.895,-3.946 -34.262,-15.833 -40.029,-20.812c5.313,-4.584 18.771,-15.038 35.634,-19.746l27.191,-1.379c15.534,2.862 28.738,11.229 35.942,16.612c1.446,1.079 2.271,2.725 2.271,4.517c0,1.787 -0.825,3.433 -2.271,4.512m3.742,-14.033c-8.784,-6.567 -21.396,-14.079 -36.088,-17.283l-15.017,-10.638c-3.75,-2.662 -8.85,-2.233 -12.108,1.025l-13.271,13.267c-5.687,2.221 -10.862,4.887 -15.316,7.6l-30.8,-8.413c-2.234,-0.604 -4.563,0.188 -5.946,2.029c-1.388,1.846 -1.509,4.309 -0.309,6.28l9.625,15.779l-9.625,15.783c-1.2,1.971 -1.079,4.433 0.305,6.275c1.079,1.438 2.733,2.238 4.458,2.238c0.496,0 0.992,-0.063 1.487,-0.205l31.096,-8.491c7.159,4.329 16.121,8.541 26.15,10.85l-0.829,1.654c-1.212,2.421 -1.083,5.242 0.338,7.546c1.425,2.3 3.887,3.675 6.591,3.675l9.063,0c4.271,0 7.75,-3.479 7.75,-7.754l0,-3.805c17.412,-2.133 32.421,-10.879 42.446,-18.375c3.037,-2.27 4.779,-5.741 4.779,-9.516c0,-3.779 -1.742,-7.25 -4.779,-9.521" style="fill:#fff;fill-rule:nonzero;"/><path d="M90.763,186.597l-8.071,8.07l0,-24.108c0,-4.796 -1.5,-9.375 -4.337,-13.233l-5.042,-6.884l13.771,-13.77l-8.837,-8.842l-12.413,12.417l-7.779,-10.609l-10.079,7.392l20.304,27.688c1.25,1.704 1.912,3.729 1.912,5.841l0,11.796l-18.404,-18.325l-8.821,8.854l27.225,27.113l0,15.808c-0.033,0.525 -0.154,1.029 -0.154,1.563l0,11.799l12.654,0l0,-13.362c0.338,-2.546 1.446,-4.908 3.292,-6.754l13.617,-13.617l-8.838,-8.837Z" style="fill:#fff;fill-rule:nonzero;"/><path d="M95.833,91.667c0,4.604 3.73,8.333 8.334,8.333c4.604,0 8.333,-3.729 8.333,-8.333c0,-4.604 -3.729,-8.334 -8.333,-8.334c-4.604,0 -8.334,3.73 -8.334,8.334" style="fill:#fff;fill-rule:nonzero;"/><path d="M62.5,108.333c0,4.605 3.729,8.334 8.333,8.334c4.605,0 8.334,-3.73 8.334,-8.334c0,-4.604 -3.729,-8.333 -8.334,-8.333c-4.604,0 -8.333,3.729 -8.333,8.333" style="fill:#fff;fill-rule:nonzero;"/></g></svg>