<svg width="378" height="385" viewBox="0 0 378 385" fill="none" xmlns="http://www.w3.org/2000/svg">
<path d="M360.774 207.446C360.318 208.091 314.699 272.253 270.548 285.234C243.764 293.11 220.477 308.891 200.917 332.314C197.876 323.125 190.032 302.466 177.382 289.602C168.796 280.869 146.337 266.901 138.346 262.046L138.364 262.037C136.472 258.269 136.928 253.653 137.506 247.809C138.072 242.103 138.775 235.004 137.45 226.368C133.374 199.782 127.783 187.421 125.284 182.954L125.424 182.982C127.28 173.413 141.368 170.163 154.994 167.019C164.586 164.806 173.644 162.717 178.975 158.471C190.174 149.555 198.326 149.364 237.503 148.448C241.791 148.348 246.449 148.239 251.52 148.108C304.186 146.76 306.146 91.4411 306.161 90.8832L303.494 90.818C303.48 91.3506 301.611 144.162 251.454 145.447C246.384 145.576 241.729 145.685 237.441 145.785C197.522 146.718 189.214 146.913 177.314 156.388C172.456 160.256 163.683 162.28 154.394 164.424C140.32 167.67 125.816 171.049 123.041 181.621L123.007 181.646C120 174.774 98.7229 124.999 104.737 106.472C107.744 97.2095 118.524 91.1202 128.951 85.2307C141.029 78.4078 152.424 71.9457 152.775 60.7473L152.787 60.75C153.316 58.686 155.171 58.0362 157.978 57.0549C163.424 55.1507 171.656 52.2719 176.123 35.0601C182.64 9.95351 188.605 3.49011 188.665 3.42752L187.705 2.50342C187.453 2.76307 181.468 9.16123 174.834 34.7259C170.545 51.2493 163.027 53.8778 157.538 55.7979C154.778 56.7633 152.395 57.6195 151.593 60.1508C151.281 59.4384 150.943 58.6168 150.567 57.7007C147.552 50.3411 142.507 38.0242 131.618 35.6061C129.881 35.2212 127.324 34.915 124.362 34.5608C118.444 33.8524 111.079 32.9696 105.017 30.9216C92.6408 26.7432 83.365 19.8164 83.273 19.7472L82.4689 20.8097C82.5623 20.8803 92.0008 27.9336 104.589 32.1839C110.783 34.2772 118.224 35.168 124.202 35.8844C127.128 36.2346 129.656 36.5382 131.327 36.9083C141.535 39.1746 146.415 51.0881 149.331 58.2067C149.631 58.9364 149.908 59.6141 150.168 60.2267H150.139C150.139 70.2014 139.208 76.3758 127.634 82.9138C116.765 89.0536 105.525 95.4025 102.198 105.65C100.882 109.706 100.755 115.059 101.407 121.06C93.2916 110.604 74.6333 94.1762 64.6467 96.4598C51.5624 99.4531 14.9192 99.4824 14.1338 99.4824C14.1298 99.4824 14.1245 99.4824 14.1245 99.4824L14.1232 100.814C15.686 100.811 51.6371 100.803 64.9454 97.7581C74.884 95.4918 94.9291 114.006 101.746 123.759C105.13 147.685 119.324 179.947 120.823 183.31L120.814 183.316C120.816 183.319 120.828 183.336 120.847 183.363C120.878 183.431 120.903 183.488 120.92 183.527L120.95 183.513C121.98 185.035 128.74 195.966 133.493 226.972C134.741 235.11 134.093 241.647 133.522 247.416C133.004 252.632 132.571 257.247 133.853 261.431C126.097 257.716 108.974 250.221 89.2138 246.022C65.6175 241.009 37.9594 242.482 13.3311 250.061L14.5099 253.878C38.5048 246.494 65.4295 245.056 88.3816 249.928C114.641 255.508 136.161 267.044 136.376 267.158L136.404 267.106C144.859 272.278 165.779 285.405 173.574 293.331C187.234 307.224 195.254 331.891 196.89 337.289C187.603 349.232 179.209 362.991 171.736 378.542C171.281 379.487 170.902 380.276 170.598 380.884L176.562 383.862C176.879 383.226 177.274 382.408 177.747 381.421C200.756 333.542 232.611 303.329 272.43 291.619C291.995 285.867 313.747 270.564 337.083 246.139C354.333 228.085 366.109 211.439 366.225 211.274L360.774 207.446Z" fill="#181716"/>
<path d="M204.399 354.282L202.1 352.763L199.781 362.428L207.776 356.514L205.507 355.013C213.688 342.927 222.398 333.04 240.54 319.767L239.751 318.692C223.492 330.589 214.032 340.085 204.399 354.282Z" fill="#181716"/>
<path d="M176.442 279.182L180.574 274.377V279.182H176.442ZM183.531 279.182H181.948V272.675H180.63L175.466 278.683V280.326H180.573V283.325H181.948V280.326H183.531V279.182Z" fill="#181716"/>
<path d="M148.1 219.074C147.804 218.951 147.541 218.872 147.312 218.832V218.733C147.88 218.619 148.373 218.34 148.791 217.901C149.209 217.459 149.417 216.941 149.417 216.351C149.417 215.92 149.329 215.54 149.153 215.214C148.976 214.889 148.716 214.613 148.372 214.384C148.052 214.174 147.694 214.023 147.297 213.926C146.901 213.83 146.442 213.784 145.922 213.784C145.393 213.784 144.845 213.854 144.279 213.994C143.713 214.134 143.261 214.291 142.922 214.457V215.95H142.992C143.447 215.656 143.929 215.427 144.439 215.263C144.95 215.102 145.433 215.021 145.886 215.021C146.182 215.021 146.448 215.045 146.682 215.091C146.916 215.141 147.136 215.224 147.341 215.348C147.536 215.473 147.689 215.632 147.798 215.824C147.909 216.018 147.964 216.242 147.964 216.5C147.964 217.083 147.748 217.525 147.316 217.826C146.884 218.131 146.305 218.279 145.578 218.279H145.077V219.468H145.722C146.076 219.468 146.405 219.496 146.71 219.551C147.016 219.605 147.276 219.706 147.49 219.856C147.706 219.998 147.874 220.194 147.996 220.443C148.117 220.695 148.178 221.01 148.178 221.392C148.178 221.78 148.125 222.097 148.017 222.352C147.91 222.603 147.746 222.836 147.526 223.045C147.317 223.242 147.042 223.388 146.704 223.489C146.364 223.588 146.044 223.637 145.743 223.637C145.233 223.637 144.702 223.549 144.154 223.375C143.605 223.198 143.127 222.977 142.72 222.709H142.614V224.205C142.98 224.371 143.451 224.524 144.025 224.665C144.598 224.805 145.179 224.876 145.771 224.876C146.35 224.876 146.881 224.797 147.365 224.636C147.85 224.477 148.272 224.23 148.629 223.897C148.949 223.595 149.199 223.242 149.375 222.838C149.551 222.432 149.64 221.985 149.64 221.499C149.64 221.01 149.565 220.607 149.417 220.298C149.269 219.989 149.081 219.73 148.852 219.525C148.647 219.347 148.396 219.194 148.1 219.074Z" fill="#181716"/>
<path d="M58.0085 231.869C57.7124 231.749 57.4497 231.669 57.2204 231.629V231.531C57.7884 231.416 58.2818 231.138 58.6992 230.696C59.1179 230.257 59.326 229.739 59.326 229.149C59.326 228.717 59.238 228.338 59.0619 228.012C58.8846 227.687 58.6245 227.411 58.2805 227.182C57.9605 226.972 57.6031 226.819 57.2057 226.724C56.8097 226.628 56.3509 226.582 55.8309 226.582C55.3015 226.582 54.7534 226.652 54.188 226.792C53.6213 226.932 53.1692 227.086 52.8305 227.253V228.748H52.9012C53.3559 228.454 53.8373 228.225 54.348 228.061C54.8587 227.9 55.3415 227.816 55.7949 227.816C56.0909 227.816 56.3563 227.843 56.591 227.889C56.8243 227.938 57.0444 228.022 57.2497 228.146C57.4444 228.271 57.5978 228.43 57.7071 228.621C57.8178 228.815 57.8725 229.04 57.8725 229.298C57.8725 229.881 57.6564 230.323 57.2244 230.624C56.7923 230.929 56.2136 231.077 55.4868 231.077H54.9854V232.266H55.6308C55.9842 232.266 56.3136 232.294 56.619 232.349C56.9243 232.403 57.1844 232.504 57.3991 232.653C57.6151 232.796 57.7831 232.992 57.9045 233.241C58.0258 233.492 58.0871 233.808 58.0871 234.19C58.0871 234.575 58.0338 234.894 57.9258 235.15C57.8191 235.4 57.6551 235.631 57.4351 235.843C57.2257 236.04 56.951 236.186 56.6123 236.287C56.2723 236.386 55.9522 236.435 55.6522 236.435C55.1415 236.435 54.6107 236.347 54.0627 236.173C53.5133 235.996 53.0359 235.775 52.6291 235.507H52.5225V237.002C52.8892 237.169 53.3599 237.322 53.9333 237.463C54.5067 237.603 55.0881 237.673 55.6802 237.673C56.2589 237.673 56.7897 237.595 57.2737 237.434C57.7591 237.275 58.1805 237.025 58.5379 236.692C58.8579 236.392 59.1073 236.04 59.2833 235.634C59.4593 235.23 59.5487 234.783 59.5487 234.297C59.5487 233.805 59.474 233.404 59.326 233.096C59.178 232.787 58.9899 232.528 58.7606 232.323C58.5552 232.142 58.3045 231.992 58.0085 231.869Z" fill="#181716"/>
<path d="M213.535 139.438H207.798C208.27 139.037 208.779 138.603 209.325 138.133C209.867 137.663 210.395 137.178 210.908 136.677C211.265 136.328 211.57 136.011 211.821 135.725C212.072 135.44 212.29 135.149 212.476 134.853C212.674 134.54 212.829 134.207 212.93 133.856C213.033 133.505 213.085 133.127 213.085 132.722C213.085 131.821 212.774 131.107 212.153 130.58C211.533 130.053 210.675 129.789 209.582 129.789C209.053 129.789 208.505 129.858 207.938 129.997C207.372 130.135 206.92 130.288 206.582 130.455V131.957H206.652C207.135 131.643 207.63 131.408 208.135 131.255C208.642 131.105 209.111 131.027 209.546 131.027C210.201 131.027 210.71 131.183 211.076 131.496C211.44 131.808 211.622 132.242 211.622 132.794C211.622 133.4 211.453 133.964 211.114 134.487C210.775 135.009 210.146 135.713 209.231 136.6C208.797 137.022 208.327 137.451 207.824 137.88C207.319 138.308 206.816 138.738 206.315 139.167V140.661H213.535V139.438Z" fill="#181716"/>
<path d="M118.798 113.437H113.061C113.533 113.036 114.042 112.602 114.586 112.133C115.131 111.662 115.659 111.177 116.169 110.677C116.527 110.328 116.832 110.011 117.083 109.725C117.334 109.44 117.551 109.148 117.738 108.853C117.938 108.54 118.09 108.207 118.192 107.855C118.295 107.505 118.347 107.127 118.347 106.722C118.347 105.821 118.036 105.107 117.415 104.58C116.795 104.052 115.937 103.789 114.844 103.789C114.314 103.789 113.766 103.858 113.2 103.996C112.634 104.135 112.182 104.288 111.843 104.454V105.956H111.914C112.397 105.643 112.892 105.408 113.397 105.256C113.904 105.104 114.373 105.027 114.808 105.027C115.463 105.027 115.972 105.183 116.337 105.496C116.703 105.809 116.885 106.241 116.885 106.794C116.885 107.4 116.716 107.963 116.377 108.486C116.037 109.008 115.409 109.713 114.493 110.6C114.058 111.023 113.589 111.45 113.086 111.879C112.582 112.308 112.08 112.738 111.578 113.167V114.661H118.798V113.437Z" fill="#181716"/>
<path d="M57.6672 92.1296H55.4896V82.5317H54.3802C54.3602 82.842 54.2882 83.0883 54.1615 83.2734C54.0348 83.4572 53.8614 83.609 53.6414 83.7275C53.4654 83.822 53.2054 83.8953 52.8613 83.9459C52.5173 83.9951 52.1946 84.0204 51.8945 84.0204V84.9938H54.1148V92.1296H51.8945V93.2162H57.6672V92.1296Z" fill="#181716"/>
<path d="M192.005 28.2639H189.827V18.666H188.717C188.697 18.9763 188.625 19.2226 188.498 19.4064C188.371 19.5915 188.198 19.7419 187.978 19.8618C187.802 19.9563 187.542 20.0295 187.198 20.0801C186.854 20.1281 186.531 20.1547 186.231 20.1547V21.1267H188.451V28.2639H186.231V29.3505H192.005V28.2639Z" fill="#181716"/>
<path d="M122.855 28.2639H120.678V18.666H119.568C119.548 18.9763 119.476 19.2226 119.349 19.4064C119.223 19.5915 119.049 19.7419 118.829 19.8618C118.653 19.9563 118.393 20.0295 118.049 20.0801C117.705 20.1281 117.383 20.1547 117.083 20.1547V21.1267H119.303V28.2639H117.083V29.3505H122.855V28.2639Z" fill="#181716"/>
</svg>
