<?xml version="1.0" encoding="UTF-8" standalone="no"?><!DOCTYPE svg PUBLIC "-//W3C//DTD SVG 1.1//EN" "http://www.w3.org/Graphics/SVG/1.1/DTD/svg11.dtd"><svg width="100%" height="100%" viewBox="0 0 284 284" version="1.1" xmlns="http://www.w3.org/2000/svg" xmlns:xlink="http://www.w3.org/1999/xlink" xml:space="preserve" xmlns:serif="http://www.serif.com/" style="fill-rule:evenodd;clip-rule:evenodd;stroke-linejoin:round;stroke-miterlimit:2;"><rect id="Page-4" serif:id="Page 4" x="0" y="0" width="283.333" height="283.333" style="fill:none;"/><g id="icon"><path d="M283.333,141.667c0,78.241 -63.425,141.666 -141.666,141.666c-78.242,0 -141.667,-63.425 -141.667,-141.666c0,-78.242 63.425,-141.667 141.667,-141.667c78.241,0 141.666,63.425 141.666,141.667" style="fill:#d88a0f;fill-rule:nonzero;"/><path d="M154.167,212.5c-11.504,0 -20.834,9.329 -20.834,20.833l41.667,0c0,-11.504 -9.329,-20.833 -20.833,-20.833" style="fill:#fff;fill-rule:nonzero;"/><path d="M131.25,187.5c-8.054,0 -14.583,6.529 -14.583,14.583l29.166,0c0,-8.054 -6.529,-14.583 -14.583,-14.583" style="fill:#fff;fill-rule:nonzero;"/><path d="M149.369,153.715l-3.646,-10.933l-8.583,-13.067l-12.6,0c-7.263,0 -19.954,0.475 -20.492,0.496l-1.596,0.062l-18.079,27.113l0,26.987l-30.062,0l-2.879,-17.254l10.329,-6.887l0.025,-0.134l14.608,-7.304l-2.792,-5.587l-10.262,5.129l2.529,-12.646l-7.142,-14.279l5.25,-13.121l18.755,7.5l25.6,0l0,-6.25l-24.396,0l-14.225,-5.688l12.858,-5.141l11.113,-11.113l17.891,-10.737l0.346,-0.238c7.329,-5.866 15.563,-10.791 18.042,-10.841c2.75,2.416 6.929,2.416 10.979,2.416c2.525,0 5.987,0 6.896,0.904c2.275,2.28 6.991,4.163 11.983,6.159c1.55,0.621 3.25,1.304 4.817,1.987c-9.296,1.15 -21.429,2.875 -23.413,3.159l-0.7,0.1l-13.091,8.725l3.466,5.2l11.913,-7.938c9.554,-1.358 23.146,-3.2 29.308,-3.821c4.775,5.388 14.129,16.509 19.254,22.663l15.35,12.116l-16.15,12.921l-1.258,0c-2.567,-3.354 -10.258,-10.004 -33.492,-24.525l-0.762,-0.475l-13.396,0l0,6.25l11.604,0c10.233,6.429 21.35,14.017 27.208,18.75l-13.812,0l0,6.25l26.096,0l19,-15.196l1.946,1.538l13.379,6.762l0,36.155l5.8,14.491l-21.821,0c-4.221,-3.25 -9.492,-5.208 -15.233,-5.208c-5.738,0 -11.013,1.958 -15.234,5.208l-23.962,0l-7.267,-30.658Zm92.746,36.908l-8.779,-21.946l0,-38.812l-16.017,-8.008l-21.354,-16.775c-2.004,-2.405 -16.204,-19.409 -20.967,-24.542l0,-0.333c-0.075,0 -0.208,0.012 -0.3,0.012c-0.208,-0.217 -0.421,-0.442 -0.579,-0.6c-2.271,-2.279 -6.987,-4.162 -11.983,-6.158c-3.792,-1.517 -8.513,-3.409 -9.884,-4.775c-2.733,-2.738 -7.1,-2.738 -11.312,-2.738c-2.533,0 -5.996,0 -6.904,-0.908c-3.717,-3.717 -12.413,-0.154 -25.859,10.571l-18.041,10.825l-11.084,10.946l-18.862,7.55l-8.304,20.762l7.433,14.871l-3.183,15.9l-11.533,7.692l4.408,26.466l41.612,0l0,-31.341l5.467,-8.196c2.863,0.491 6.346,0.641 8.075,-1.088c4.167,-4.166 8.142,0 12.5,0c8.333,0 16.667,-4.166 25,4.167c0.692,0.692 1.275,1.221 1.792,1.646l8.241,34.812l23.138,0c-2.521,3.904 -4.004,8.55 -4.004,13.542l50,0c0,-4.992 -1.479,-9.638 -4.004,-13.542l25.287,0Z" style="fill:#fff;fill-rule:nonzero;"/></g></svg>