<?xml version="1.0" encoding="UTF-8" standalone="no"?><!DOCTYPE svg PUBLIC "-//W3C//DTD SVG 1.1//EN" "http://www.w3.org/Graphics/SVG/1.1/DTD/svg11.dtd"><svg width="100%" height="100%" viewBox="0 0 284 284" version="1.1" xmlns="http://www.w3.org/2000/svg" xmlns:xlink="http://www.w3.org/1999/xlink" xml:space="preserve" xmlns:serif="http://www.serif.com/" style="fill-rule:evenodd;clip-rule:evenodd;stroke-linejoin:round;stroke-miterlimit:2;"><rect id="Page-1" serif:id="Page 1" x="0" y="0" width="283.333" height="283.333" style="fill:none;"/><g id="Page-11" serif:id="Page 1"><g id="background"><path d="M283.333,141.667c0,78.241 -63.425,141.666 -141.666,141.666c-78.242,0 -141.667,-63.425 -141.667,-141.666c0,-78.242 63.425,-141.667 141.667,-141.667c78.241,0 141.666,63.425 141.666,141.667" style="fill:#009020;fill-rule:nonzero;"/></g><g id="Layer-3" serif:id="Layer 3"><path d="M88.833,180.448c-13.813,0 -25.05,-11.237 -25.05,-25.054c0,-3.1 0.583,-6.162 1.733,-9.104l0.996,-2.546l-2.388,-1.325c-10.637,-5.921 -17.25,-17.141 -17.25,-29.287c0,-15.767 11.188,-29.559 26.6,-32.784l1.488,-0.312l0.675,-1.367c7.129,-14.471 21.541,-23.462 37.612,-23.462c23.138,0 41.959,18.82 41.959,41.958l0,18.783c0,12.3 -5.396,23.95 -14.8,31.95l-1.584,1.355l0.629,1.979c0.5,1.55 0.73,2.875 0.73,4.162c0,7.604 -6.184,13.784 -13.784,13.784c-3.708,0 -7.191,-1.463 -9.808,-4.117l-1.463,-1.483l0,-38.705l-17.841,0l0,14.871l-4.688,-1.562c-2.529,-0.846 -4.237,-3.213 -4.237,-5.879l0,-1.484l-8.921,0l0,2.75c0,5.859 2.325,11.475 6.471,15.613l10.975,10.962l0,18.904c-2.563,0.88 -5.267,1.4 -8.054,1.4m26.295,27.884l0,-36.042c0.05,-0.079 0.117,-0.15 0.167,-0.229c3.263,2.192 7.092,3.367 11.104,3.367c11.046,0 20.034,-8.984 20.034,-20.034c0,-1.316 -0.159,-2.658 -0.475,-4.062c9.875,-9.134 15.5,-21.917 15.5,-35.384l0,-18.783c0,-26.579 -21.625,-48.208 -48.209,-48.208c-17.966,0 -34.129,9.775 -42.533,25.612c-17.525,4.384 -30.092,20.363 -30.092,38.563c0,13.533 6.913,26.096 18.204,33.391c-0.862,2.896 -1.295,5.871 -1.295,8.871c0,17.263 14.041,31.304 31.3,31.304c2.754,0 5.458,-0.379 8.054,-1.079l0,22.713l18.241,0Z" style="fill:#fff;fill-rule:nonzero;"/><path d="M120.833,216.667c-11.504,0 -20.833,9.329 -20.833,20.833l41.667,0c0,-11.504 -9.329,-20.833 -20.834,-20.833" style="fill:#fff;fill-rule:nonzero;"/><path d="M168.282,174.52l17.188,-29.775l-10.7,0l15.529,-26.9l-10.771,0l16.317,-28.262l16.316,28.262l-10.775,0l15.529,26.9l-10.7,0l17.188,29.775l-55.121,0Zm33.913,21.954l0,-15.704l32.033,0l-17.192,-29.775l10.704,0l-15.533,-26.9l10.775,0l-27.137,-47.012l-27.146,47.012l10.779,0l-15.533,26.9l10.704,0l-17.192,29.775l32.033,0l0,10.996c-0.658,-0.05 -1.32,-0.1 -1.991,-0.1c-13.804,0 -25,11.196 -25,25l50,0c0,-8.304 -4.067,-15.646 -10.304,-20.192" style="fill:#fff;fill-rule:nonzero;"/><path d="M143.75,191.667c-8.054,0 -14.583,6.529 -14.583,14.583l29.166,0c0,-8.054 -6.529,-14.583 -14.583,-14.583" style="fill:#fff;fill-rule:nonzero;"/></g></g></svg>