<svg width="426" height="425" viewBox="0 0 426 425" fill="none" xmlns="http://www.w3.org/2000/svg">
<path d="M247.335 327.107V374.03C247.335 375.079 248.237 375.829 249.139 375.829C250.19 375.829 250.942 374.929 250.942 374.03V327.107C250.942 326.058 250.04 325.308 249.139 325.308C248.237 325.158 247.335 326.058 247.335 327.107Z" fill="#75B840"/>
<path d="M247.335 305.52V329.506C247.335 330.555 248.237 331.305 249.139 331.305C250.19 331.305 250.942 330.405 250.942 329.506V305.52C250.942 304.471 250.04 303.721 249.139 303.721C248.237 303.721 247.335 304.471 247.335 305.52Z" fill="#75B840"/>
<path d="M261.31 315.714H237.268C236.216 315.714 235.464 316.614 235.464 317.513C235.464 318.413 236.366 319.312 237.268 319.312H261.31C262.362 319.312 263.113 318.413 263.113 317.513C263.113 316.614 262.362 315.714 261.31 315.714Z" fill="#75B840"/>
<path d="M256.652 307.619L239.372 324.859C238.62 325.608 238.62 326.808 239.372 327.557C240.123 328.307 241.325 328.307 242.076 327.557L259.357 310.317C260.108 309.568 260.108 308.368 259.357 307.619C258.605 306.869 257.403 306.869 256.652 307.619Z" fill="#75B840"/>
<path d="M259.206 324.859L241.926 307.619C241.175 306.869 239.973 306.869 239.221 307.619C238.47 308.368 238.47 309.568 239.221 310.317L256.502 327.557C257.253 328.307 258.455 328.307 259.206 327.557C259.958 326.808 259.958 325.608 259.206 324.859Z" fill="#75B840"/>
<path d="M253.045 317.513C253.045 319.612 251.393 321.261 249.289 321.261C247.185 321.261 245.532 319.612 245.532 317.513C245.532 315.415 247.185 313.766 249.289 313.766C251.393 313.766 253.045 315.415 253.045 317.513Z" fill="white"/>
<path d="M258.155 356.19L256.802 357.54C257.554 358.289 258.455 359.039 259.357 359.638C260.709 360.538 262.512 360.988 264.315 360.688C266.119 360.388 267.922 359.339 269.575 357.69C270.777 356.34 271.678 354.841 272.279 353.042C273.181 350.494 273.782 347.795 273.932 345.697C274.233 343.598 274.233 342.099 274.233 341.949C274.233 341.499 274.083 340.899 273.632 340.6C273.331 340.3 272.73 340 272.279 340C272.279 340 269.575 340 266.269 340.6C264.616 340.899 262.813 341.349 261.16 341.949C259.507 342.549 257.854 343.448 256.502 344.647C255.45 345.697 254.548 346.896 254.097 348.095C253.346 349.894 253.346 351.693 253.797 353.342C254.398 354.991 255.3 356.34 256.502 357.39L258.155 356.19L259.507 354.841C258.906 354.242 258.455 353.642 258.004 353.042C257.554 352.143 257.403 351.393 257.403 350.644C257.554 349.894 258.004 348.845 259.357 347.496C260.108 346.746 261.16 346.146 262.663 345.547C264.766 344.797 267.17 344.347 269.124 344.048C270.176 343.898 270.927 343.898 271.528 343.748C271.829 343.748 272.129 343.748 272.279 343.748H272.43V341.949H270.627C270.627 342.249 270.476 344.797 270.025 347.645C269.725 349.145 269.424 350.644 268.823 351.993C268.373 353.342 267.621 354.392 267.02 355.141C266.119 356.041 265.367 356.49 264.766 356.79C263.714 357.24 263.113 357.24 262.212 356.94C261.46 356.64 260.409 356.041 259.507 355.141L258.155 356.19Z" fill="#75B840"/>
<path d="M261.01 350.644L248.538 363.086C247.786 363.836 247.786 365.035 248.538 365.785C249.289 366.534 250.491 366.534 251.242 365.785L263.714 353.342C264.466 352.593 264.466 351.393 263.714 350.644C262.963 349.894 261.761 349.894 261.01 350.644Z" fill="#75B840"/>
<path d="M240.273 344.498L241.626 345.847C240.874 346.596 239.973 347.346 239.071 347.946C237.719 348.845 235.915 349.295 234.112 348.995C232.309 348.695 230.506 347.646 228.853 345.997C227.651 344.648 226.749 343.148 226.148 341.349C225.247 338.801 224.646 336.103 224.495 334.004C224.195 331.905 224.195 330.406 224.195 330.256C224.195 329.806 224.345 329.207 224.796 328.907C225.096 328.607 225.697 328.307 226.148 328.307C226.148 328.307 228.853 328.307 232.159 328.907C233.812 329.207 235.615 329.656 237.268 330.256C238.921 330.856 240.574 331.755 241.926 332.954C242.978 334.004 243.879 335.203 244.33 336.402C245.082 338.201 245.082 340 244.631 341.649C244.03 343.298 243.128 344.648 241.926 345.697L240.273 344.498L238.921 343.148C239.522 342.549 239.973 341.949 240.423 341.349C240.874 340.45 241.175 339.7 241.024 338.951C240.874 338.051 240.423 337.002 239.071 335.803C238.32 335.053 237.118 334.454 235.765 333.854C233.661 333.104 231.107 332.655 229.154 332.355C228.102 332.205 227.35 332.205 226.749 332.055C226.449 332.055 226.148 332.055 225.998 332.055H225.848V330.256H227.651C227.651 330.556 227.801 333.104 228.252 335.953C228.552 337.452 228.853 338.951 229.454 340.3C229.905 341.649 230.656 342.699 231.257 343.448C232.159 344.348 232.91 344.797 233.511 345.097C234.563 345.547 235.164 345.547 236.066 345.247C236.817 344.947 237.869 344.348 238.77 343.448L240.273 344.498Z" fill="#75B840"/>
<path d="M237.418 338.951L249.74 351.244C250.491 351.993 250.491 353.192 249.74 353.942C248.989 354.692 247.786 354.692 247.035 353.942L234.713 341.649C233.962 340.9 233.962 339.7 234.713 338.951C235.465 338.201 236.667 338.201 237.418 338.951Z" fill="#75B840"/>
<path d="M157.928 83.9501C160.933 78.8531 162.586 73.0066 162.586 66.7103C162.586 48.2711 148.011 33.28 129.829 33.28C128.025 33.28 126.372 33.4299 124.569 33.7297C120.061 22.7861 109.393 15.1406 97.0709 15.1406C80.5418 15.1406 67.1683 28.7826 67.1683 45.5727C67.1683 45.8725 67.1683 46.0225 67.1683 46.3223C65.5153 46.0225 63.7122 45.8725 62.0593 45.8725C44.0275 45.8725 29.3016 60.8637 29.3016 79.3029C29.3016 81.8514 29.6021 84.25 30.0529 86.4986C20.1354 94.1441 13.3735 106.437 13.3735 120.229C13.3735 137.768 24.0423 152.76 39.0688 158.906C40.2709 175.846 54.0952 189.188 70.9249 189.188C82.1947 189.188 91.9619 183.192 97.672 174.347C104.133 183.342 114.502 189.188 126.372 189.188C143.953 189.188 158.529 176.146 161.384 159.056C174.157 152.01 182.872 138.218 182.872 122.477C183.022 105.088 172.654 90.2465 157.928 83.9501Z" fill="white"/>
<path d="M186.027 122.328C186.027 104.938 176.26 89.9473 162.135 82.6016C164.389 77.8044 165.742 72.4076 165.742 66.8609C165.742 56.8168 161.685 47.6722 155.373 41.2259C148.762 34.4799 139.746 30.4323 129.979 30.4323C128.777 30.4323 127.725 30.5822 126.523 30.5822C123.968 25.4852 120.212 21.1378 115.553 17.9896C110.294 14.3917 103.983 12.293 97.0708 12.293C88.0549 12.293 79.7904 16.0408 73.7798 22.0372C68.3703 27.584 64.9142 34.9297 64.3131 43.0249C63.5618 43.0249 62.8105 42.875 62.0592 42.875C52.1417 42.875 43.2761 46.9226 36.8147 53.5187C30.3533 60.1148 26.4465 69.2595 26.4465 79.1536C26.4465 81.2524 26.5967 83.2013 26.8973 85.1501C16.9798 93.5452 10.3682 106.138 10.3682 120.229C10.3682 138.369 21.0369 153.96 36.3639 160.856C37.4158 169.251 41.3227 176.896 47.183 182.443C53.3438 188.439 61.7586 192.037 71.075 192.037C81.8941 192.037 91.6613 186.94 97.9724 179.145C105.035 187.09 115.253 192.037 126.523 192.037C136.14 192.037 144.855 188.439 151.467 182.593C157.778 177.046 162.436 169.401 164.239 160.706C177.312 153.21 186.027 138.819 186.027 122.328ZM160.032 156.358C159.28 156.808 158.679 157.558 158.529 158.457C157.177 166.252 153.119 173.298 147.56 178.095C141.85 183.043 134.487 186.041 126.523 186.041C115.704 186.041 106.237 180.644 100.226 172.399C99.6253 171.649 98.7237 171.05 97.6719 171.199C96.62 171.349 95.7184 171.799 95.2676 172.549C90.0084 180.644 81.1428 186.041 70.9248 186.041C63.2613 186.041 56.3491 183.043 51.2401 178.095C46.1311 173.148 42.675 166.252 42.074 158.607C41.9237 157.408 41.3227 156.508 40.2708 156.058C26.2962 150.362 16.3787 136.57 16.3787 120.229C16.3787 107.337 22.5396 95.9438 32.0063 88.8979C32.9078 88.1483 33.3586 86.9491 33.2084 85.8997C32.7576 83.8009 32.4571 81.5522 32.4571 79.3036C32.4571 70.9085 35.7629 63.263 41.1724 57.8662C46.5819 52.3194 53.9449 49.0214 62.2094 49.0214C63.7121 49.0214 65.365 49.1713 66.8676 49.4711C67.7692 49.621 68.6708 49.3212 69.2719 48.7215C69.8729 48.1219 70.3237 47.2224 70.3237 46.323C70.3237 45.8732 70.3237 45.5734 70.3237 45.5734C70.3237 37.9279 73.329 31.1819 78.1375 26.0849C82.9459 21.1378 89.7078 18.1395 97.0708 18.1395C102.631 18.1395 107.74 19.7886 112.097 22.7868C116.455 25.785 119.761 29.9826 121.864 34.9297C122.466 36.2789 123.818 37.0284 125.17 36.7286C126.823 36.4288 128.326 36.2789 129.979 36.2789C138.243 36.2789 145.606 39.7268 151.016 45.1237C156.425 50.6704 159.731 58.166 159.731 66.561C159.731 72.2577 158.078 77.6545 155.373 82.1519C154.923 82.9014 154.772 83.8009 155.073 84.5505C155.373 85.3 155.975 86.0496 156.726 86.3494C170.4 92.196 180.017 105.838 180.017 122.028C180.017 137.17 171.903 149.912 160.032 156.358Z" fill="#75B840"/>
<path d="M14.1249 382.725H410.823C413.077 382.725 415.031 380.926 415.031 378.527C415.031 376.129 413.228 374.33 410.823 374.33H14.1249C11.8709 374.33 9.91748 376.129 9.91748 378.527C9.91748 380.926 11.8709 382.725 14.1249 382.725Z" fill="#977800"/>
<path d="M279.192 377.028C287.607 375.529 304.737 372.531 309.245 372.531C313.602 372.531 331.183 375.529 339.899 377.028C340.95 377.178 342.002 376.728 342.303 375.679C342.754 374.78 342.453 373.58 341.552 372.981C341.101 372.531 329.38 363.836 321.266 360.538C321.116 359.489 320.815 358.439 320.665 357.24C320.514 356.34 319.763 355.591 318.711 355.441L297.374 352.443C296.773 352.293 296.021 352.593 295.571 352.892C295.12 353.342 294.819 353.942 294.819 354.541C294.819 357.24 294.669 359.938 294.669 362.787C286.705 365.335 277.689 372.681 277.389 372.981C276.637 373.58 276.337 374.78 276.787 375.679C277.088 376.728 278.14 377.328 279.192 377.028Z" fill="white"/>
<path d="M279.191 377.028L279.642 379.277C283.849 378.527 290.311 377.328 296.171 376.428C299.176 375.979 301.881 375.529 304.285 375.229C306.539 374.929 308.493 374.779 309.394 374.779C310.296 374.779 312.249 374.929 314.503 375.229C321.566 376.129 333.136 378.077 339.598 379.277C339.898 379.277 340.199 379.277 340.349 379.277C342.152 379.277 343.805 378.227 344.406 376.578C344.707 375.979 344.857 375.379 344.857 374.779C344.857 373.43 344.256 372.081 343.054 371.182C342.753 371.032 339.748 368.633 335.691 365.935C331.634 363.236 326.675 360.088 322.167 358.439L321.265 360.538L323.519 360.088C323.369 359.039 323.069 357.989 322.918 356.79C322.618 354.841 320.965 353.492 319.162 353.192L297.824 350.194C297.674 350.194 297.373 350.194 297.223 350.194C296.171 350.194 295.119 350.494 294.368 351.243C293.316 352.143 292.865 353.342 292.715 354.541C292.715 357.24 292.565 359.938 292.565 362.786H294.819L294.067 360.688C289.86 362.187 285.502 364.735 282.046 366.834C278.59 369.083 276.186 371.032 276.036 371.182C274.984 372.081 274.383 373.28 274.383 374.629C274.383 375.229 274.533 375.979 274.834 376.578C275.585 378.227 277.238 379.127 278.891 379.127C279.191 379.127 279.492 379.127 279.642 378.977L279.191 377.028L278.74 374.779C278.891 374.629 281.295 372.831 284.451 370.732C287.606 368.633 291.814 366.234 295.42 365.035C296.321 364.735 296.922 363.836 296.922 362.936C296.922 360.238 297.073 357.54 297.073 354.691L318.41 357.689C318.561 358.739 318.861 359.788 319.011 360.987C319.162 361.737 319.612 362.337 320.364 362.637C324.12 364.136 329.079 367.134 332.986 369.682C336.893 372.231 339.898 374.629 340.199 374.779C335.841 374.03 329.229 372.831 323.219 371.931C320.214 371.481 317.358 371.032 314.804 370.732C312.4 370.432 310.446 370.282 309.094 370.282C307.742 370.282 305.788 370.432 303.384 370.732C296.171 371.631 285.052 373.58 278.59 374.779L279.191 377.028Z" fill="#977800"/>
<path d="M327.877 347.646H327.576C327.877 346.746 328.178 345.847 328.178 344.947C328.178 340.75 324.421 337.302 319.763 337.302C317.058 337.302 314.804 338.501 313.151 340.3C311.949 339.55 310.597 338.951 309.094 338.951C305.337 338.951 302.332 341.799 302.332 345.247C302.332 348.695 305.337 351.543 309.094 351.543C310.747 351.543 321.866 353.042 321.866 353.342C321.866 356.49 324.571 358.889 327.727 358.889C331.033 358.889 333.587 356.341 333.587 353.342C333.888 350.194 331.183 347.646 327.877 347.646Z" fill="white"/>
<path d="M327.877 347.645L327.727 345.846H327.426L327.577 347.645L329.38 348.395C329.831 347.345 330.131 346.146 330.131 344.947C330.131 342.248 328.929 339.85 327.126 338.201C325.323 336.552 322.768 335.502 319.913 335.502C316.607 335.502 313.752 337.002 311.949 339.1L313.452 340.3L314.504 338.8C313.001 337.751 311.348 337.151 309.395 337.151C306.99 337.151 304.887 338.051 303.384 339.55C301.881 341.049 300.83 343.148 300.83 345.397C300.83 347.645 301.881 349.744 303.384 351.243C304.887 352.742 307.141 353.642 309.395 353.642C309.545 353.642 309.845 353.642 310.296 353.642C311.799 353.792 314.804 354.092 317.359 354.541C318.561 354.691 319.763 354.841 320.514 354.991C320.965 354.991 321.266 355.141 321.416 355.141H321.566L321.867 354.091L321.266 355.141C321.416 355.291 321.416 355.291 321.416 355.291L321.716 354.241L321.115 355.291L321.867 353.792L320.665 354.991C320.815 355.141 320.965 355.291 321.115 355.291L321.867 353.792L320.665 354.991L321.867 353.642L320.214 354.541C320.364 354.691 320.514 354.841 320.514 354.991L321.716 353.642H320.063C320.063 354.091 320.214 354.391 320.364 354.541L322.017 353.642H320.063C320.063 355.741 320.965 357.689 322.317 358.889C323.67 360.238 325.623 360.987 327.727 360.987C329.831 360.987 331.784 360.238 333.136 358.889C334.489 357.539 335.39 355.591 335.39 353.642C335.39 351.543 334.489 349.594 333.136 348.395C331.784 347.046 329.831 346.296 327.727 346.296H327.577L327.877 347.645V349.444C329.079 349.444 329.981 349.894 330.732 350.644C331.484 351.393 331.934 352.293 331.934 353.192C331.934 354.241 331.484 355.141 330.732 355.741C329.981 356.49 328.929 356.94 327.877 356.94C326.675 356.94 325.774 356.49 325.022 355.741C324.271 354.991 323.82 354.092 323.82 353.192C323.82 352.892 323.67 352.592 323.67 352.293C323.52 351.843 323.219 351.693 323.069 351.543C322.768 351.393 322.618 351.243 322.618 351.243C322.468 351.093 322.317 351.093 322.017 351.093C321.416 350.943 320.514 350.793 319.312 350.644C317.509 350.344 315.405 350.044 313.452 349.894C312.55 349.744 311.649 349.744 310.897 349.594C310.146 349.594 309.695 349.444 309.244 349.444C307.892 349.444 306.69 348.994 305.788 348.095C304.887 347.345 304.436 346.146 304.436 344.947C304.436 343.748 304.887 342.698 305.788 341.799C306.69 341.049 307.892 340.45 309.244 340.45C310.447 340.45 311.348 340.749 312.25 341.349C313.001 341.949 314.203 341.799 314.804 341.049C316.006 339.7 317.809 338.8 319.913 338.8C321.716 338.8 323.369 339.55 324.571 340.599C325.774 341.649 326.375 343.148 326.375 344.647C326.375 345.397 326.224 345.996 325.924 346.746C325.623 347.345 325.774 348.095 326.074 348.545C326.525 349.144 327.126 349.294 327.727 349.294H328.027L327.877 347.645Z" fill="#75B840"/>
<path d="M65.5154 138.969L92.2625 165.653C93.4646 166.852 95.2677 166.852 96.4699 165.653C97.672 164.454 97.672 162.655 96.4699 161.455L69.7228 134.621C68.5207 133.422 66.7175 133.422 65.5154 134.621C64.3132 135.82 64.3132 137.769 65.5154 138.969Z" fill="#977800"/>
<path d="M130.58 124.277L103.833 150.961C102.631 152.16 100.827 152.16 99.6252 150.961C98.4231 149.762 98.4231 147.963 99.6252 146.763L126.372 120.079C127.574 118.88 129.378 118.88 130.58 120.079C131.782 121.129 131.782 123.077 130.58 124.277Z" fill="#977800"/>
<path d="M71.0751 376.578C79.0391 375.679 94.8169 374.18 98.4233 374.18C101.879 374.18 119.46 375.979 125.922 376.728C127.274 376.878 128.626 375.979 129.077 374.779C129.528 373.43 129.077 372.081 127.875 371.331C127.424 371.032 116.154 363.986 106.087 361.887C104.434 276.887 102.781 191.887 101.278 106.887C101.278 105.238 99.9259 103.889 98.273 103.889C96.6201 103.889 95.2677 105.238 95.2677 106.887C93.7651 192.037 92.2624 277.187 90.7598 362.187C81.4434 364.136 69.7227 371.032 69.1217 371.331C67.9196 372.081 67.3185 373.58 67.7693 374.929C68.3704 375.829 69.7227 376.728 71.0751 376.578Z" fill="white"/>
<path d="M71.0749 376.579L71.3754 379.577C75.2823 379.127 81.2929 378.528 86.7024 378.078C89.4072 377.778 91.9617 377.628 94.0654 377.478C96.1691 377.329 97.822 377.179 98.5733 377.179C98.8739 377.179 99.4749 377.179 100.226 377.179C103.081 377.329 108.04 377.778 112.999 378.228C117.957 378.678 122.916 379.277 125.771 379.577C125.921 379.577 126.222 379.577 126.372 379.577C128.927 379.577 131.181 377.928 132.082 375.53C132.233 374.93 132.383 374.18 132.383 373.581C132.383 371.632 131.331 369.683 129.528 368.484C129.227 368.334 126.222 366.385 122.015 364.286C117.807 362.187 112.247 359.789 106.838 358.59L106.237 361.588H109.242C107.589 276.588 105.936 191.588 104.434 106.588C104.434 103.29 101.729 100.741 98.4231 100.741C95.1172 100.741 92.4125 103.29 92.4125 106.588C90.9098 191.738 89.4072 276.888 87.9045 361.888H90.9098L90.3088 358.889C85.1998 359.939 79.7903 362.187 75.5828 364.286C71.3754 366.385 68.2199 368.184 67.9194 368.334C66.1162 369.383 64.9141 371.482 64.9141 373.431C64.9141 374.03 65.0643 374.63 65.2146 375.38C66.1162 377.778 68.3701 379.427 70.9246 379.427C71.0749 379.427 71.3754 379.427 71.5257 379.427L71.0749 376.579L70.7744 373.581C70.9246 373.431 73.9299 371.632 77.9871 369.683C82.0442 367.734 87.1532 365.635 91.3606 364.736C92.713 364.436 93.7649 363.237 93.7649 361.888C95.2675 276.738 96.7702 191.588 98.2728 106.588C99.9257 191.588 101.579 276.588 103.081 361.588C103.081 362.937 104.133 364.136 105.485 364.436C110.144 365.336 115.253 367.584 119.31 369.683C123.367 371.632 126.222 373.431 126.372 373.581C123.066 373.281 117.056 372.681 111.346 372.082C108.491 371.782 105.786 371.632 103.532 371.332C102.33 371.182 101.428 371.182 100.527 371.182C99.6252 371.182 99.0241 371.032 98.4231 371.032C97.3712 371.032 95.7183 371.182 93.4643 371.332C87.003 371.782 76.6347 372.831 70.6241 373.581L71.0749 376.579Z" fill="#977800"/>
<path d="M205.111 248.404C202.857 238.81 194.292 231.764 184.074 231.764C182.271 231.764 180.618 232.064 178.965 232.364C173.405 225.468 164.99 220.97 155.374 220.97C138.694 220.97 125.17 234.462 125.17 251.103C125.17 251.552 125.17 252.002 125.17 252.452C111.346 256.499 101.278 269.092 101.278 284.233C101.278 294.727 106.087 303.871 113.6 310.018C112.548 312.566 111.947 315.415 111.947 318.413C111.947 330.256 121.564 339.85 133.435 339.85C142 339.85 149.363 334.903 152.819 327.558C155.975 329.506 159.731 330.556 163.788 330.556C169.048 330.556 173.706 328.757 177.462 325.609C181.369 330.856 187.68 334.304 194.743 334.304C206.614 334.304 216.231 324.709 216.231 312.866C216.231 310.767 215.93 308.669 215.329 306.72C223.293 300.573 228.402 290.979 228.402 280.185C228.703 265.344 218.785 252.602 205.111 248.404Z" fill="white"/>
<path d="M205.111 248.404L207.816 247.804C206.614 242.407 203.608 237.61 199.401 234.312C195.194 231.014 189.934 228.915 184.074 228.915C181.97 228.915 180.167 229.215 178.214 229.665L178.815 232.363L181.069 230.564C175.058 223.069 165.742 218.122 155.223 218.122C137.041 218.122 122.165 232.813 122.165 251.102C122.165 251.702 122.165 252.301 122.165 252.601L125.02 252.451L124.269 249.753C116.755 252.002 110.294 256.499 105.636 262.495C100.978 268.492 98.2729 275.988 98.2729 284.233C98.2729 295.476 103.532 305.67 111.646 312.116L113.45 309.868L111.196 308.818C109.994 311.816 109.242 314.965 109.242 318.413C109.242 331.905 120.212 342.698 133.585 342.698C143.352 342.698 151.617 337.002 155.524 328.906L152.969 327.707L151.467 330.106C155.073 332.204 159.28 333.554 163.788 333.554C169.649 333.554 175.058 331.455 179.266 328.007L177.462 325.758L175.208 327.407C179.566 333.404 186.779 337.301 194.743 337.301C208.267 337.301 219.086 326.358 219.086 313.016C219.086 310.617 218.785 308.368 218.034 306.12L215.329 306.869L216.982 309.118C225.547 302.522 231.107 292.028 231.107 280.335C231.107 272.24 228.402 264.594 223.894 258.598C219.386 252.601 212.925 247.954 205.562 245.705L205.111 248.404L204.209 251.102C210.521 253.051 215.93 256.949 219.687 262.046C223.594 267.143 225.848 273.439 225.848 280.335C225.848 290.229 221.189 298.924 213.826 304.621C212.925 305.37 212.474 306.57 212.775 307.619C213.225 309.268 213.526 311.067 213.526 312.866C213.526 318.113 211.422 322.76 207.966 326.058C204.51 329.506 199.852 331.605 194.743 331.605C188.582 331.605 183.172 328.607 179.716 324.109C179.266 323.51 178.514 323.06 177.763 323.06C177.012 322.91 176.26 323.21 175.659 323.659C172.353 326.358 168.296 327.857 163.788 327.857C160.332 327.857 157.026 326.958 154.322 325.309C153.57 324.859 152.819 324.859 152.068 325.009C151.316 325.309 150.715 325.758 150.415 326.508C147.409 332.804 140.948 337.152 133.585 337.152C128.326 337.152 123.668 335.053 120.362 331.605C116.906 328.157 114.802 323.51 114.802 318.413C114.802 315.864 115.403 313.316 116.305 311.067C116.755 309.868 116.455 308.518 115.553 307.769C108.641 302.222 104.284 293.677 104.284 284.233C104.284 277.337 106.537 271.04 110.444 265.943C114.351 260.846 119.761 257.099 126.072 255.15C127.274 254.85 128.176 253.651 128.025 252.301C128.025 251.702 128.025 251.402 128.025 251.102C128.025 243.607 131.031 236.711 135.989 231.764C140.948 226.816 147.71 223.818 155.373 223.818C164.089 223.818 171.752 227.866 176.711 234.162C177.462 235.062 178.514 235.361 179.566 235.212C181.069 234.912 182.571 234.612 184.074 234.612C188.582 234.612 192.639 236.111 195.795 238.809C198.95 241.358 201.354 245.106 202.256 249.153C202.406 250.203 203.158 250.952 204.209 251.252L205.111 248.404Z" fill="#75B840"/>
<path d="M163.488 266.543V375.079C163.488 376.578 164.69 377.928 166.343 377.928C167.996 377.928 169.198 376.728 169.198 375.079V266.543C169.198 265.044 167.996 263.695 166.343 263.695C164.69 263.695 163.488 265.044 163.488 266.543Z" fill="#977800"/>
<path d="M146.959 281.235L164.39 298.624C165.441 299.674 167.245 299.674 168.447 298.624C169.499 297.575 169.499 295.776 168.447 294.577L150.866 277.337C149.814 276.287 148.011 276.287 146.809 277.337C145.757 278.386 145.757 280.185 146.959 281.235Z" fill="#977800"/>
<path d="M134.487 292.028L144.705 375.529C144.855 377.028 146.358 378.228 147.86 377.928C149.363 377.778 150.565 376.279 150.265 374.78L140.047 291.279C139.896 289.78 138.394 288.58 136.891 288.88C135.389 289.18 134.337 290.379 134.487 292.028Z" fill="#977800"/>
<path d="M124.419 310.467L138.093 321.111C139.295 322.01 141.098 321.86 142 320.661C142.902 319.462 142.751 317.663 141.549 316.763L127.875 306.12C126.673 305.22 124.87 305.37 123.968 306.569C123.067 307.769 123.217 309.568 124.419 310.467Z" fill="#977800"/>
<path d="M198.65 285.882L187.38 377.628C187.23 379.127 185.727 380.326 184.225 380.027C182.722 379.727 181.52 378.377 181.82 376.878L193.09 285.132C193.24 283.633 194.743 282.434 196.246 282.734C197.748 283.034 198.95 284.383 198.65 285.882Z" fill="#977800"/>
<path d="M205.862 312.416L194.592 321.111C193.39 322.011 191.587 321.861 190.686 320.662C189.784 319.462 189.934 317.663 191.136 316.764L202.406 308.069C203.608 307.169 205.411 307.319 206.313 308.519C207.365 309.718 207.064 311.367 205.862 312.416Z" fill="#977800"/>
<path d="M379.869 364.436C378.516 367.884 378.667 371.332 383.625 373.281C388.584 375.229 397.901 371.632 397.901 371.632C397.901 371.632 393.693 362.637 388.734 360.538C383.776 358.589 381.221 360.838 379.869 364.436Z" fill="white"/>
<path d="M379.869 364.435L378.066 363.686C377.615 364.735 377.314 365.635 377.164 366.684C377.014 368.183 377.164 369.982 378.216 371.481C379.118 372.98 380.77 374.18 382.874 374.929C384.527 375.529 386.18 375.679 387.983 375.679C390.538 375.529 393.242 374.929 395.196 374.48C397.149 373.88 398.502 373.43 398.502 373.43C398.952 373.28 399.403 372.831 399.554 372.381C399.704 371.931 399.704 371.331 399.554 370.882C399.554 370.882 398.502 368.483 396.698 365.935C395.797 364.585 394.745 363.236 393.543 362.037C392.341 360.838 390.988 359.638 389.336 359.039C387.983 358.439 386.631 358.139 385.429 358.139C383.625 358.139 381.822 358.739 380.62 359.938C379.418 360.988 378.667 362.487 378.066 363.836L379.869 364.435L381.672 365.185C381.973 364.435 382.273 363.686 382.724 363.236C383.325 362.487 383.926 362.037 384.677 361.887C385.429 361.737 386.48 361.737 388.133 362.337C389.035 362.637 390.087 363.386 390.988 364.435C392.491 365.935 393.843 368.033 394.745 369.532C395.196 370.282 395.647 371.032 395.797 371.481C395.947 371.781 396.097 371.931 396.097 372.081V372.231L397.75 371.481L396.999 369.682C396.849 369.832 394.445 370.582 391.74 371.182C390.387 371.481 388.885 371.631 387.532 371.781C386.18 371.781 384.978 371.631 384.076 371.331C383.024 370.882 382.273 370.432 381.822 369.982C381.071 369.233 380.921 368.633 380.77 367.883C380.77 367.134 380.921 366.084 381.372 364.885L379.869 364.435Z" fill="#977800"/>
<path d="M385.879 364.736C385.879 364.736 384.677 364.286 383.174 363.686C381.822 363.087 380.169 362.487 378.666 361.737C377.915 361.438 377.314 361.138 376.713 360.838C376.112 360.538 375.661 360.388 375.511 360.238C374.159 359.339 373.407 357.99 372.956 356.79C372.806 356.191 372.656 355.741 372.506 355.291C372.506 355.141 372.506 354.991 372.506 354.841V354.692C372.506 353.642 371.604 352.893 370.552 352.893C369.5 352.893 368.749 353.792 368.749 354.841C368.749 354.991 368.899 356.191 369.5 357.84C370.101 359.489 371.304 361.587 373.558 363.087C374.008 363.386 374.459 363.686 375.21 363.986C377.014 364.886 379.869 366.085 381.972 366.834C383.475 367.434 384.677 367.884 384.677 367.884C385.579 368.184 386.781 367.734 387.081 366.834C387.382 366.235 386.931 365.035 385.879 364.736Z" fill="#977800"/>
<path d="M360.936 368.783C360.936 368.783 363.19 374.48 367.096 375.229C371.154 375.979 375.361 371.482 375.361 371.482C375.361 371.482 373.107 365.785 369.2 365.035C365.143 364.286 360.936 368.783 360.936 368.783Z" fill="white"/>
<path d="M360.936 368.783L359.133 369.533C359.133 369.683 359.734 371.182 360.936 372.831C361.537 373.73 362.288 374.63 363.19 375.379C364.091 376.129 365.293 376.878 366.646 377.178C367.998 377.478 369.351 377.178 370.553 376.878C372.356 376.279 373.708 375.379 374.76 374.48C375.812 373.58 376.413 372.981 376.563 372.981C377.014 372.381 377.164 371.632 377.014 371.032C377.014 370.882 376.413 369.383 375.211 367.734C374.61 366.834 373.858 365.935 372.957 365.185C372.055 364.436 370.853 363.686 369.501 363.386C368.148 363.087 366.796 363.386 365.594 363.686C363.791 364.286 362.438 365.185 361.386 366.085C360.335 366.984 359.734 367.584 359.583 367.584C359.133 368.184 358.982 368.933 359.133 369.533L360.936 368.783L362.288 370.132C362.288 370.132 363.34 369.083 364.692 368.184C365.293 367.734 366.045 367.434 366.796 367.134C367.547 366.984 368.148 366.834 368.749 366.984C369.351 367.134 369.952 367.434 370.553 367.884C371.454 368.633 372.206 369.683 372.807 370.732C373.107 371.182 373.257 371.632 373.408 371.931C373.408 372.081 373.558 372.231 373.558 372.231V372.381L375.361 371.632L374.009 370.282C374.009 370.282 372.957 371.332 371.604 372.231C371.003 372.681 370.252 372.981 369.501 373.281C368.749 373.43 368.148 373.58 367.547 373.431C366.946 373.281 366.345 372.981 365.744 372.531C364.843 371.781 364.091 370.732 363.49 369.683C363.19 369.233 363.039 368.783 362.889 368.483C362.889 368.333 362.739 368.184 362.739 368.184V368.034L360.936 368.783Z" fill="#977800"/>
</svg>
